PathFileType	4	(X/Y/Z)	C:/Users/beibeiliu/ov580/test_trc/User3\sequence.11_training_dense_right.trc
DataRate	CameraRate	NumFrames	NumMarkers	Units	OrigDataRate	OrigDataStartFrame	OrigNumFrames
120	120	12	19	mm	120	25	196
Frame#	Time	ThumbCMC			ThumbMCP			ThumbIP			ThumbTip			IndexMCP			IndexPIP			IndexTip			MiddleMCP			MiddlePIP			MiddleTip			RingMCP			RingPIP			RingTip			PinkyMCP			PinkyPIP			PinkyTip			BackHand1			BackHand2			BackHand3	
		X0	Y0	Z0	X1	Y1	Z1	X2	Y2	Z2	X3	Y3	Z3	X4	Y4	Z4	X5	Y5	Z5	X6	Y6	Z6	X7	Y7	Z7	X8	Y8	Z8	X9	Y9	Z9	X10	Y10	Z10	X11	Y11	Z11	X12	Y12	Z12	X13	Y13	Z13	X14	Y14	Z14	X15	Y15	Z15	X16	Y16	Z16	X17	Y17	Z17	X18	Y18	Z18	
24	0.2	123.653	-47.5385	40.5432	106.486	-57.7787	22.9083	82.0875	-62.5277	7.42181	63.769	-67.2137	-7.36724	133.809	-61.5702	-34.7174	125.349	-66.8689	-56.2601	120.093	-72.0787	-79.8385	168.382	-57.545	-34.41	167.36	-60.1858	-63.2884	170.03	-62.2111	-95.8211	187.19	-61.8923	-28.449	197.016	-64.8593	-48.0983	204.103	-67.4375	-70.4737	206.121	-72.1655	-4.68181	220.228	-78.2459	-21.5393	235.181	-80.4475	-30.8726	181.051	-41.0159	14.4458	183.826	-28.7434	46.1387	148.081	-32.8863	28.6086	
25	0.208333	120.398	-47.3762	39.9522	103.909	-56.1292	23.3612	85.7408	-61.6818	7.38547	68.8707	-67.2802	-8.5819	134.06	-60.8948	-31.0462	126.506	-67.5842	-55.2774	121.591	-72.536	-79.4395	167.946	-57.0051	-38.6568	170.049	-60.3634	-61.2306	170.096	-62.7141	-96.6498	189.924	-63.2654	-25.7884	197.207	-64.6999	-49.6013	202.509	-67.2948	-69.3214	208.58	-72.2747	-4.37455	220.298	-78.4214	-16.0836	236.337	-80.7004	-32.2929	183.867	-41.848	19.1328	184.607	-29.7158	43.8129	151.335	-32.3058	27.7308	
26	0.216667	124.345	-48.2639	40.6913	106.881	-56.3239	23.468	83.776	-60.1369	6.68924	66.4316	-64.6354	-7.14558	133.805	-60.7901	-30.406	128.717	-66.8023	-54.0942	117.389	-71.6894	-78.4879	165.529	-56.434	-35.2523	169.743	-61.6031	-64.7845	172.568	-64.3779	-92.286	186.914	-62.0217	-28.7949	194.026	-64.7891	-50.5597	206.346	-66.9242	-72.922	209.727	-72.875	-5.1793	218.035	-78.7987	-21.4879	233.32	-81.6591	-34.5276	181.193	-43.7681	16.2174	185.991	-31.891	43.3536	151.553	-30.6105	28.1121	
27	0.225	121.608	-46.0342	43.7615	103.969	-55.4836	25.6026	82.1985	-60.9875	1.94867	65.6741	-65.0108	-5.41404	135.711	-61.1856	-33.2468	126.365	-66.5373	-53.9148	117.355	-70.805	-79.1361	165.78	-57.2553	-36.6759	170.006	-61.1358	-63.4251	168.693	-64.5646	-95.9574	188.911	-62.8113	-22.9898	193.225	-65.5227	-48.4254	207.334	-68.4076	-71.8219	207.541	-72.2784	-4.18268	221.465	-78.4741	-15.529	233.432	-81.4137	-37.0889	182.447	-43.7468	14.9953	182.21	-28.2903	45.1308	151.221	-32.8695	24.277	
28	0.233333	122.626	-47.3708	41.1174	103.809	-55.2479	21.0966	85.1841	-60.6578	4.57221	66.299	-63.7705	-6.42374	132.236	-60.6406	-34.6006	124.714	-66.1983	-53.8631	117.313	-71.8053	-81.3066	165.46	-57.6473	-37.8864	166.12	-61.7562	-62.0397	169.312	-64.997	-94.4258	188.119	-63.8715	-26.808	195.996	-66.0097	-47.0343	204.55	-69.4832	-69.9937	206.495	-73.4956	-4.78905	219.688	-78.959	-19.0804	234.949	-81.4084	-31.6899	180.468	-42.5094	16.9295	183.945	-29.9371	45.2999	148.421	-33.3741	23.6475	
29	0.241667	124.611	-46.5788	43.4626	105.306	-55.2774	24.6233	81.974	-58.8081	3.49798	67.336	-63.1577	-10.9673	135.985	-62.6671	-36.0111	127.256	-66.948	-54.2552	120.977	-71.4633	-77.5359	167.803	-58.0293	-38.692	169.432	-63.2723	-64.1785	167.646	-66.237	-96.1933	188.921	-64.6244	-23.7243	195.587	-66.7599	-48.643	203.352	-69.4883	-72.6654	205.438	-73.6667	-3.37634	221.079	-79.7239	-19.0777	235.502	-81.5192	-30.748	181.939	-43.6931	15.8572	185.842	-29.8096	44.6538	148.1	-32.7457	27.7994	
30	0.25	122.709	-46.926	41.2672	104.378	-54.2683	22.7767	84.9823	-59.5846	5.08204	70.1588	-63.9309	-7.66214	132.281	-62.3319	-32.1132	128.888	-69.3546	-55.8542	122.243	-71.8383	-76.6061	167.005	-59.5997	-37.1707	169.024	-63.451	-64.4658	171.022	-67.6513	-93.8386	189.257	-64.7621	-25.6134	193.829	-67.1384	-47.7827	207.226	-71.2221	-73.0089	204.383	-74.3549	-5.05147	217.015	-80.67	-20.8791	232.139	-82.0629	-32.6207	182.56	-44.5311	17.6292	183.346	-32.2885	43.0038	149.424	-32.7025	27.6094	
31	0.258333	123.754	-47.1235	42.5613	103.914	-55.3812	20.3836	85.1678	-59.6331	3.63117	66.9791	-63.398	-9.41787	137.551	-62.6279	-30.9526	127.845	-68.9635	-56.086	124.348	-72.4834	-79.0756	168.597	-59.4416	-38.1758	171.2	-64.1927	-62.4314	170.311	-66.9277	-95.2895	188.499	-65.9403	-26.6062	196.977	-68.8094	-47.5392	202.912	-71.213	-69.8916	206.839	-74.9736	-2.90434	217.181	-81.2908	-18.511	231.568	-83.2408	-35.1457	180.951	-45.2976	16.8002	181.715	-29.6143	44.2916	152.932	-34.2217	27.1234	
32	0.266667	121.298	-45.1045	44.91	102.596	-54.2539	20.5667	82.6463	-58.1003	1.33522	67.6622	-63.2807	-10.9871	136.961	-61.4212	-30.1291	124.963	-68.3909	-56.8705	121.8	-72.2834	-76.2274	166.95	-59.6142	-34.3695	167.369	-63.7869	-63.4236	173.773	-67.1634	-92.6413	188.627	-65.3605	-24.0729	195.344	-67.9705	-46.2663	207.551	-71.8279	-71.0671	204.803	-73.8892	-2.27436	220.556	-80.7298	-15.3344	234.168	-84.7709	-35.7833	184.028	-43.3887	18.2582	186.107	-32.7655	43.9517	153.214	-34.6039	24.3265	
33	0.275	123.022	-46.2331	43.3903	103.33	-52.9121	25.1481	83.8499	-58.8243	4.39847	67.0566	-61.5226	-10.654	133.452	-61.3394	-33.8378	127.521	-67.122	-54.8237	125.844	-71.7926	-77.9812	170.233	-60.737	-33.6594	169.46	-63.6975	-62.29	171.483	-66.7742	-90.7264	191.282	-65.9636	-26.7252	198.278	-67.9998	-46.2012	208.937	-72.7019	-67.645	207.289	-74.2579	-4.08168	220.313	-80.2441	-16.063	237.748	-82.2298	-33.6916	183.065	-42.1818	17.2767	183.457	-32.316	41.631	149.001	-33.4977	27.6319	
34	0.283333	124.835	-46.8782	41.0056	103.055	-52.0545	21.2726	88.4243	-58.7705	3.90814	67.9202	-60.5214	-10.9981	139.635	-62.5967	-33.0135	126.755	-66.8405	-58.4633	125.118	-70.3057	-77.8427	166.084	-59.7481	-38.7358	169.518	-64.0638	-61.6058	173.782	-68.2489	-94.1663	188.736	-66.105	-25.5582	197.648	-69.5182	-44.3114	206.337	-72.2691	-72.7717	206.937	-75.488	-3.9553	221.176	-82.0693	-16.6001	234.126	-83.3328	-33.1955	184.698	-45.2	20.0501	183.762	-32.7461	45.4449	151.204	-34.9199	24.8996	
35	0.291667	125.858	-45.0713	44.2242	104.26	-51.317	19.3041	85.38	-56.0539	1.92463	72.8849	-61.8563	-13.0008	135.419	-60.7579	-35.3646	132.326	-67.8196	-55.3138	124.287	-69.6803	-77.6519	169.205	-59.4106	-39.6911	171.555	-63.8122	-63.4385	176.976	-68.1367	-92.042	191.905	-66.4642	-23.2122	196.773	-69.0778	-48.607	210.019	-72.8738	-72.3104	207.947	-75.0279	-6.15291	217.774	-81.7678	-15.6507	234.925	-85.0199	-32.7239	182.129	-42.3828	17.6869	184.759	-30.8943	46.9264	154.673	-33.149	25.6217	
